<mxfile host="app.diagrams.net" agent="Mozilla/5.0 (Macintosh; Intel Mac OS X 10_15_7) AppleWebKit/537.36 (KHTML, like Gecko) Chrome/133.0.0.0 Safari/537.36" version="26.0.16">
  <diagram name="Page-1" id="19d8dcba-68ad-dc05-1034-9cf7b2a963f6">
    <mxGraphModel dx="1036" dy="722" grid="1" gridSize="10" guides="1" tooltips="1" connect="1" arrows="1" fold="1" page="1" pageScale="1" pageWidth="1100" pageHeight="850" background="none" math="0" shadow="0">
      <root>
        <mxCell id="0" />
        <mxCell id="1" parent="0" />
        <mxCell id="218ae93e1282097f-29" value="Not Registered In System&amp;nbsp;" style="whiteSpace=wrap;html=1;rounded=1;shadow=0;comic=0;strokeWidth=2;fontFamily=Verdana;align=center;fontSize=10;" parent="1" vertex="1">
          <mxGeometry x="1780" y="482.5" width="130" height="37.5" as="geometry" />
        </mxCell>
        <mxCell id="218ae93e1282097f-34" value="Found in System&amp;nbsp;" style="whiteSpace=wrap;html=1;rounded=1;shadow=0;comic=0;strokeWidth=2;fontFamily=Verdana;align=center;fontSize=10;" parent="1" vertex="1">
          <mxGeometry x="1450" y="476.25" width="110" height="43.75" as="geometry" />
        </mxCell>
        <mxCell id="218ae93e1282097f-42" value="" style="edgeStyle=orthogonalEdgeStyle;rounded=1;html=1;labelBackgroundColor=none;endArrow=block;endFill=1;strokeColor=#4D4D4D;strokeWidth=2;fontFamily=Verdana;fontSize=12;fontStyle=1" parent="1" source="6257edae8c83ed4a-1" target="6257edae8c83ed4a-12" edge="1">
          <mxGeometry relative="1" as="geometry" />
        </mxCell>
        <mxCell id="218ae93e1282097f-43" value="" style="edgeStyle=orthogonalEdgeStyle;rounded=1;html=1;labelBackgroundColor=none;endArrow=block;endFill=1;strokeColor=#4D4D4D;strokeWidth=2;fontFamily=Verdana;fontSize=12;fontStyle=1" parent="1" source="6257edae8c83ed4a-1" target="6257edae8c83ed4a-9" edge="1">
          <mxGeometry relative="1" as="geometry" />
        </mxCell>
        <mxCell id="218ae93e1282097f-44" value="" style="edgeStyle=orthogonalEdgeStyle;rounded=1;html=1;labelBackgroundColor=none;endArrow=block;endFill=1;strokeColor=#4D4D4D;strokeWidth=2;fontFamily=Verdana;fontSize=12;fontStyle=1" parent="1" source="6257edae8c83ed4a-1" target="218ae93e1282097f-2" edge="1">
          <mxGeometry relative="1" as="geometry" />
        </mxCell>
        <mxCell id="218ae93e1282097f-46" value="" style="edgeStyle=orthogonalEdgeStyle;rounded=1;html=1;labelBackgroundColor=none;endArrow=block;endFill=1;strokeColor=#4D4D4D;strokeWidth=2;fontFamily=Verdana;fontSize=12;fontStyle=1" parent="1" source="6257edae8c83ed4a-9" target="218ae93e1282097f-8" edge="1">
          <mxGeometry relative="1" as="geometry" />
        </mxCell>
        <mxCell id="218ae93e1282097f-48" value="" style="edgeStyle=orthogonalEdgeStyle;rounded=1;html=1;labelBackgroundColor=none;endArrow=block;endFill=1;strokeColor=#4D4D4D;strokeWidth=2;fontFamily=Verdana;fontSize=12;fontStyle=1" parent="1" source="218ae93e1282097f-2" target="6257edae8c83ed4a-24" edge="1">
          <mxGeometry relative="1" as="geometry" />
        </mxCell>
        <mxCell id="218ae93e1282097f-49" value="" style="edgeStyle=elbowEdgeStyle;rounded=1;html=1;labelBackgroundColor=none;endArrow=block;endFill=1;strokeColor=#4D4D4D;strokeWidth=2;fontFamily=Verdana;fontSize=10;exitX=0;exitY=0.5;exitDx=0;exitDy=0;" parent="1" source="218ae93e1282097f-5" target="218ae93e1282097f-34" edge="1">
          <mxGeometry relative="1" as="geometry">
            <mxPoint x="1320" y="420" as="sourcePoint" />
            <Array as="points">
              <mxPoint x="1510" y="440" />
            </Array>
          </mxGeometry>
        </mxCell>
        <mxCell id="218ae93e1282097f-51" value="" style="edgeStyle=elbowEdgeStyle;rounded=1;html=1;labelBackgroundColor=none;endArrow=block;endFill=1;strokeColor=#4D4D4D;strokeWidth=2;fontFamily=Verdana;fontSize=10;entryX=0.5;entryY=0;entryDx=0;entryDy=0;" parent="1" source="6257edae8c83ed4a-12" target="kJzLt-CPVOsXME4S9jf1-26" edge="1">
          <mxGeometry relative="1" as="geometry">
            <mxPoint x="987" y="430" as="targetPoint" />
          </mxGeometry>
        </mxCell>
        <mxCell id="218ae93e1282097f-52" value="" style="edgeStyle=elbowEdgeStyle;rounded=1;html=1;labelBackgroundColor=none;endArrow=block;endFill=1;strokeColor=#4D4D4D;strokeWidth=2;fontFamily=Verdana;fontSize=10;exitX=1;exitY=0.5;exitDx=0;exitDy=0;" parent="1" source="218ae93e1282097f-8" edge="1">
          <mxGeometry relative="1" as="geometry">
            <mxPoint x="520" y="340" as="sourcePoint" />
            <mxPoint x="560" y="435" as="targetPoint" />
            <Array as="points">
              <mxPoint x="560" y="403" />
            </Array>
          </mxGeometry>
        </mxCell>
        <mxCell id="218ae93e1282097f-8" value="Admin Login&amp;nbsp;" style="whiteSpace=wrap;html=1;rounded=1;shadow=0;comic=0;strokeWidth=2;fontFamily=Verdana;align=center;fontSize=12;fontStyle=1" parent="1" vertex="1">
          <mxGeometry x="300" y="320" width="200" height="50" as="geometry" />
        </mxCell>
        <mxCell id="6257edae8c83ed4a-9" value="Admin&amp;nbsp;" style="whiteSpace=wrap;html=1;rounded=1;shadow=0;comic=0;strokeWidth=2;fontFamily=Verdana;align=center;fontSize=12;fontStyle=1;fillColor=#ffe6cc;strokeColor=#d79b00;" parent="1" vertex="1">
          <mxGeometry x="300" y="210" width="200" height="50" as="geometry" />
        </mxCell>
        <mxCell id="6257edae8c83ed4a-10" value="" style="shape=actor;whiteSpace=wrap;html=1;rounded=0;shadow=0;comic=0;strokeWidth=1;fillColor=#CCCCCC;fontFamily=Verdana;align=center;strokeColor=none;fontSize=12;fontStyle=1" parent="1" vertex="1">
          <mxGeometry x="320" y="220" width="24" height="30" as="geometry" />
        </mxCell>
        <mxCell id="6257edae8c83ed4a-12" value="Hospital Staff" style="whiteSpace=wrap;html=1;rounded=1;shadow=0;comic=0;strokeWidth=2;fontFamily=Verdana;align=center;fontSize=12;fontStyle=1;fillColor=#ffe6cc;strokeColor=#d79b00;" parent="1" vertex="1">
          <mxGeometry x="887" y="290" width="200" height="50" as="geometry" />
        </mxCell>
        <mxCell id="6257edae8c83ed4a-13" value="" style="shape=actor;whiteSpace=wrap;html=1;rounded=0;shadow=0;comic=0;strokeWidth=1;fillColor=#CCCCCC;fontFamily=Verdana;align=center;strokeColor=none;fontSize=12;fontStyle=1" parent="1" vertex="1">
          <mxGeometry x="901" y="300" width="24" height="30" as="geometry" />
        </mxCell>
        <mxCell id="6257edae8c83ed4a-1" value="Main Menu&amp;nbsp;" style="whiteSpace=wrap;html=1;rounded=1;shadow=0;comic=0;strokeWidth=2;fontFamily=Verdana;align=center;fontSize=12;fontStyle=1" parent="1" vertex="1">
          <mxGeometry x="887" y="140" width="200" height="50" as="geometry" />
        </mxCell>
        <mxCell id="218ae93e1282097f-2" value="Patient&amp;nbsp;" style="whiteSpace=wrap;html=1;rounded=1;shadow=0;comic=0;strokeWidth=2;fontFamily=Verdana;align=center;fontSize=12;fontStyle=1;fillColor=#ffe6cc;strokeColor=#d79b00;" parent="1" vertex="1">
          <mxGeometry x="1600" y="200" width="200" height="50" as="geometry" />
        </mxCell>
        <mxCell id="218ae93e1282097f-3" value="" style="shape=actor;whiteSpace=wrap;html=1;rounded=0;shadow=0;comic=0;strokeWidth=1;fillColor=#CCCCCC;fontFamily=Verdana;align=center;strokeColor=none;fontSize=12;fontStyle=1" parent="1" vertex="1">
          <mxGeometry x="1619" y="210" width="24" height="30" as="geometry" />
        </mxCell>
        <mxCell id="6257edae8c83ed4a-24" value="Log In /Register&amp;nbsp;" style="whiteSpace=wrap;html=1;rounded=1;shadow=0;comic=0;strokeWidth=2;fontFamily=Verdana;align=center;fontSize=12;fontStyle=1" parent="1" vertex="1">
          <mxGeometry x="1602.5" y="330" width="195" height="40" as="geometry" />
        </mxCell>
        <mxCell id="218ae93e1282097f-5" value="Cross References ID with records&amp;nbsp;" style="whiteSpace=wrap;html=1;rounded=1;shadow=0;comic=0;strokeWidth=2;fontFamily=Verdana;align=center;fontSize=12;fontStyle=1" parent="1" vertex="1">
          <mxGeometry x="1600" y="410" width="200" height="50" as="geometry" />
        </mxCell>
        <mxCell id="kJzLt-CPVOsXME4S9jf1-2" value="" style="rounded=1;whiteSpace=wrap;html=1;" vertex="1" parent="1">
          <mxGeometry x="500" y="435" width="120" height="65" as="geometry" />
        </mxCell>
        <mxCell id="kJzLt-CPVOsXME4S9jf1-4" value="Authentication Failed&amp;nbsp;" style="text;html=1;align=center;verticalAlign=middle;whiteSpace=wrap;rounded=0;" vertex="1" parent="1">
          <mxGeometry x="530" y="450" width="60" height="30" as="geometry" />
        </mxCell>
        <mxCell id="kJzLt-CPVOsXME4S9jf1-5" value="Authentication Successful&amp;nbsp;" style="rounded=1;whiteSpace=wrap;html=1;" vertex="1" parent="1">
          <mxGeometry x="130" y="430" width="140" height="70" as="geometry" />
        </mxCell>
        <mxCell id="kJzLt-CPVOsXME4S9jf1-8" value="" style="edgeStyle=elbowEdgeStyle;rounded=1;html=1;labelBackgroundColor=none;endArrow=block;endFill=1;strokeColor=#4D4D4D;strokeWidth=2;fontFamily=Verdana;fontSize=10;exitX=0;exitY=0.5;exitDx=0;exitDy=0;" edge="1" parent="1" source="218ae93e1282097f-8">
          <mxGeometry relative="1" as="geometry">
            <mxPoint x="290" y="340" as="sourcePoint" />
            <mxPoint x="200" y="430" as="targetPoint" />
            <Array as="points">
              <mxPoint x="200" y="410" />
              <mxPoint x="170" y="393" />
            </Array>
          </mxGeometry>
        </mxCell>
        <mxCell id="kJzLt-CPVOsXME4S9jf1-14" value="Display Current Patient Records&amp;nbsp;" style="rounded=1;whiteSpace=wrap;html=1;" vertex="1" parent="1">
          <mxGeometry x="30" y="580" width="120" height="60" as="geometry" />
        </mxCell>
        <mxCell id="kJzLt-CPVOsXME4S9jf1-15" value="Add new appointment to file&amp;nbsp;" style="rounded=1;whiteSpace=wrap;html=1;" vertex="1" parent="1">
          <mxGeometry x="200" y="580" width="120" height="60" as="geometry" />
        </mxCell>
        <mxCell id="kJzLt-CPVOsXME4S9jf1-16" value="Log Out&amp;nbsp;" style="rounded=1;whiteSpace=wrap;html=1;" vertex="1" parent="1">
          <mxGeometry x="380" y="580" width="120" height="60" as="geometry" />
        </mxCell>
        <mxCell id="kJzLt-CPVOsXME4S9jf1-19" value="" style="endArrow=classic;html=1;rounded=0;exitX=0.25;exitY=1;exitDx=0;exitDy=0;entryX=0.421;entryY=-0.04;entryDx=0;entryDy=0;entryPerimeter=0;" edge="1" parent="1" source="kJzLt-CPVOsXME4S9jf1-5" target="kJzLt-CPVOsXME4S9jf1-14">
          <mxGeometry width="50" height="50" relative="1" as="geometry">
            <mxPoint x="430" y="500" as="sourcePoint" />
            <mxPoint x="480" y="450" as="targetPoint" />
            <Array as="points">
              <mxPoint x="80" y="540" />
            </Array>
          </mxGeometry>
        </mxCell>
        <mxCell id="kJzLt-CPVOsXME4S9jf1-20" value="" style="endArrow=classic;html=1;rounded=0;exitX=0.5;exitY=1;exitDx=0;exitDy=0;entryX=0.5;entryY=0;entryDx=0;entryDy=0;" edge="1" parent="1" source="kJzLt-CPVOsXME4S9jf1-5" target="kJzLt-CPVOsXME4S9jf1-15">
          <mxGeometry width="50" height="50" relative="1" as="geometry">
            <mxPoint x="430" y="500" as="sourcePoint" />
            <mxPoint x="480" y="450" as="targetPoint" />
            <Array as="points" />
          </mxGeometry>
        </mxCell>
        <mxCell id="kJzLt-CPVOsXME4S9jf1-21" value="" style="endArrow=classic;html=1;rounded=0;exitX=0.75;exitY=1;exitDx=0;exitDy=0;entryX=0.5;entryY=0;entryDx=0;entryDy=0;" edge="1" parent="1" source="kJzLt-CPVOsXME4S9jf1-5" target="kJzLt-CPVOsXME4S9jf1-16">
          <mxGeometry width="50" height="50" relative="1" as="geometry">
            <mxPoint x="430" y="500" as="sourcePoint" />
            <mxPoint x="480" y="450" as="targetPoint" />
            <Array as="points">
              <mxPoint x="440" y="530" />
            </Array>
          </mxGeometry>
        </mxCell>
        <mxCell id="kJzLt-CPVOsXME4S9jf1-24" value="" style="endArrow=classic;html=1;rounded=0;exitX=1;exitY=0.5;exitDx=0;exitDy=0;entryX=0.5;entryY=0;entryDx=0;entryDy=0;fillColor=#f8cecc;strokeColor=#b85450;strokeWidth=4;" edge="1" parent="1" source="kJzLt-CPVOsXME4S9jf1-16" target="6257edae8c83ed4a-1">
          <mxGeometry width="50" height="50" relative="1" as="geometry">
            <mxPoint x="680" y="620" as="sourcePoint" />
            <mxPoint x="760" y="50" as="targetPoint" />
            <Array as="points">
              <mxPoint x="680" y="610" />
              <mxPoint x="680" y="40" />
              <mxPoint x="987" y="40" />
            </Array>
          </mxGeometry>
        </mxCell>
        <mxCell id="kJzLt-CPVOsXME4S9jf1-25" value="" style="endArrow=classic;html=1;rounded=0;exitX=1;exitY=0.5;exitDx=0;exitDy=0;fillColor=#f8cecc;strokeColor=#b85450;strokeWidth=3;" edge="1" parent="1" source="kJzLt-CPVOsXME4S9jf1-2">
          <mxGeometry width="50" height="50" relative="1" as="geometry">
            <mxPoint x="700" y="320" as="sourcePoint" />
            <mxPoint x="680" y="468" as="targetPoint" />
          </mxGeometry>
        </mxCell>
        <mxCell id="kJzLt-CPVOsXME4S9jf1-26" value="Authentication Successful&amp;nbsp;" style="rounded=1;whiteSpace=wrap;html=1;" vertex="1" parent="1">
          <mxGeometry x="747" y="435" width="140" height="70" as="geometry" />
        </mxCell>
        <mxCell id="kJzLt-CPVOsXME4S9jf1-28" value="&lt;meta charset=&quot;utf-8&quot;&gt;&lt;span style=&quot;color: rgb(0, 0, 0); font-family: Helvetica; font-size: 12px; font-style: normal; font-variant-ligatures: normal; font-variant-caps: normal; font-weight: 400; letter-spacing: normal; orphans: 2; text-align: center; text-indent: 0px; text-transform: none; widows: 2; word-spacing: 0px; -webkit-text-stroke-width: 0px; white-space: normal; background-color: rgb(251, 251, 251); text-decoration-thickness: initial; text-decoration-style: initial; text-decoration-color: initial; display: inline !important; float: none;&quot;&gt;Authentication Failed&amp;nbsp;&lt;/span&gt;" style="rounded=1;whiteSpace=wrap;html=1;" vertex="1" parent="1">
          <mxGeometry x="1050" y="440" width="120" height="65" as="geometry" />
        </mxCell>
        <mxCell id="kJzLt-CPVOsXME4S9jf1-29" value="" style="edgeStyle=elbowEdgeStyle;rounded=1;html=1;labelBackgroundColor=none;endArrow=block;endFill=1;strokeColor=#4D4D4D;strokeWidth=2;fontFamily=Verdana;fontSize=10;entryX=0.5;entryY=0;entryDx=0;entryDy=0;" edge="1" parent="1" target="kJzLt-CPVOsXME4S9jf1-28">
          <mxGeometry relative="1" as="geometry">
            <mxPoint x="987" y="382" as="sourcePoint" />
            <mxPoint x="997.421052631579" y="450" as="targetPoint" />
            <Array as="points">
              <mxPoint x="1110" y="410" />
              <mxPoint x="1100" y="400" />
            </Array>
          </mxGeometry>
        </mxCell>
        <mxCell id="kJzLt-CPVOsXME4S9jf1-31" value="View Current Vaccine Stock&amp;nbsp;" style="rounded=1;whiteSpace=wrap;html=1;" vertex="1" parent="1">
          <mxGeometry x="700" y="550" width="120" height="60" as="geometry" />
        </mxCell>
        <mxCell id="kJzLt-CPVOsXME4S9jf1-32" value="Register Patient&#39;s Vaccination&amp;nbsp;" style="rounded=1;whiteSpace=wrap;html=1;" vertex="1" parent="1">
          <mxGeometry x="830" y="550" width="120" height="60" as="geometry" />
        </mxCell>
        <mxCell id="kJzLt-CPVOsXME4S9jf1-33" value="" style="endArrow=classic;html=1;rounded=0;exitX=0.345;exitY=0.984;exitDx=0;exitDy=0;exitPerimeter=0;entryX=0.413;entryY=-0.032;entryDx=0;entryDy=0;entryPerimeter=0;" edge="1" parent="1" source="kJzLt-CPVOsXME4S9jf1-26" target="kJzLt-CPVOsXME4S9jf1-31">
          <mxGeometry width="50" height="50" relative="1" as="geometry">
            <mxPoint x="690" y="490" as="sourcePoint" />
            <mxPoint x="740" y="440" as="targetPoint" />
            <Array as="points">
              <mxPoint x="795" y="520" />
              <mxPoint x="750" y="520" />
            </Array>
          </mxGeometry>
        </mxCell>
        <mxCell id="kJzLt-CPVOsXME4S9jf1-34" value="" style="endArrow=classic;html=1;rounded=0;exitX=0.75;exitY=1;exitDx=0;exitDy=0;entryX=0.5;entryY=0;entryDx=0;entryDy=0;" edge="1" parent="1" source="kJzLt-CPVOsXME4S9jf1-26" target="kJzLt-CPVOsXME4S9jf1-32">
          <mxGeometry width="50" height="50" relative="1" as="geometry">
            <mxPoint x="690" y="490" as="sourcePoint" />
            <mxPoint x="740" y="440" as="targetPoint" />
            <Array as="points">
              <mxPoint x="852" y="520" />
              <mxPoint x="890" y="520" />
            </Array>
          </mxGeometry>
        </mxCell>
        <mxCell id="kJzLt-CPVOsXME4S9jf1-35" value="Log Out&amp;nbsp;" style="rounded=1;whiteSpace=wrap;html=1;" vertex="1" parent="1">
          <mxGeometry x="960" y="550" width="120" height="60" as="geometry" />
        </mxCell>
        <mxCell id="kJzLt-CPVOsXME4S9jf1-36" value="" style="endArrow=classic;html=1;rounded=0;exitX=0.917;exitY=0.999;exitDx=0;exitDy=0;exitPerimeter=0;entryX=0.5;entryY=0;entryDx=0;entryDy=0;" edge="1" parent="1" source="kJzLt-CPVOsXME4S9jf1-26" target="kJzLt-CPVOsXME4S9jf1-35">
          <mxGeometry width="50" height="50" relative="1" as="geometry">
            <mxPoint x="800" y="540" as="sourcePoint" />
            <mxPoint x="850" y="490" as="targetPoint" />
            <Array as="points">
              <mxPoint x="1020" y="510" />
              <mxPoint x="1020" y="520" />
            </Array>
          </mxGeometry>
        </mxCell>
        <mxCell id="kJzLt-CPVOsXME4S9jf1-37" value="" style="endArrow=classic;html=1;rounded=0;exitX=1;exitY=0.5;exitDx=0;exitDy=0;entryX=1;entryY=0.75;entryDx=0;entryDy=0;fillColor=#f8cecc;strokeColor=#b85450;strokeWidth=3;" edge="1" parent="1" source="kJzLt-CPVOsXME4S9jf1-28" target="6257edae8c83ed4a-1">
          <mxGeometry width="50" height="50" relative="1" as="geometry">
            <mxPoint x="920" y="370" as="sourcePoint" />
            <mxPoint x="970" y="320" as="targetPoint" />
            <Array as="points">
              <mxPoint x="1200" y="473" />
              <mxPoint x="1200" y="178" />
            </Array>
          </mxGeometry>
        </mxCell>
        <mxCell id="kJzLt-CPVOsXME4S9jf1-38" value="" style="endArrow=classic;html=1;rounded=0;exitX=1;exitY=0.5;exitDx=0;exitDy=0;fillColor=#f8cecc;strokeColor=#b85450;strokeWidth=3;" edge="1" parent="1" source="kJzLt-CPVOsXME4S9jf1-35">
          <mxGeometry width="50" height="50" relative="1" as="geometry">
            <mxPoint x="920" y="370" as="sourcePoint" />
            <mxPoint x="1200" y="470" as="targetPoint" />
            <Array as="points">
              <mxPoint x="1200" y="580" />
            </Array>
          </mxGeometry>
        </mxCell>
        <mxCell id="kJzLt-CPVOsXME4S9jf1-39" value="Password cross referenced with system password&amp;nbsp;" style="text;html=1;align=center;verticalAlign=middle;whiteSpace=wrap;rounded=0;fillColor=#dae8fc;strokeColor=#6c8ebf;" vertex="1" parent="1">
          <mxGeometry x="30" y="370" width="160" height="30" as="geometry" />
        </mxCell>
        <mxCell id="kJzLt-CPVOsXME4S9jf1-40" value="" style="endArrow=classic;html=1;rounded=0;entryX=0.5;entryY=0;entryDx=0;entryDy=0;exitX=0.5;exitY=1;exitDx=0;exitDy=0;" edge="1" parent="1" source="6257edae8c83ed4a-24" target="218ae93e1282097f-5">
          <mxGeometry width="50" height="50" relative="1" as="geometry">
            <mxPoint x="1410" y="560" as="sourcePoint" />
            <mxPoint x="1460" y="510" as="targetPoint" />
          </mxGeometry>
        </mxCell>
        <mxCell id="kJzLt-CPVOsXME4S9jf1-42" value="" style="edgeStyle=elbowEdgeStyle;rounded=1;html=1;labelBackgroundColor=none;endArrow=block;endFill=1;strokeColor=#4D4D4D;strokeWidth=2;fontFamily=Verdana;fontSize=10;entryX=0.468;entryY=-0.007;entryDx=0;entryDy=0;exitX=1;exitY=0.5;exitDx=0;exitDy=0;entryPerimeter=0;" edge="1" parent="1" source="218ae93e1282097f-5" target="218ae93e1282097f-29">
          <mxGeometry relative="1" as="geometry">
            <mxPoint x="1820" y="480" as="sourcePoint" />
            <mxPoint x="1750" y="560" as="targetPoint" />
            <Array as="points">
              <mxPoint x="1840" y="470" />
            </Array>
          </mxGeometry>
        </mxCell>
        <mxCell id="kJzLt-CPVOsXME4S9jf1-43" value="View Hospital Record&amp;nbsp;" style="whiteSpace=wrap;html=1;rounded=1;shadow=0;comic=0;strokeWidth=2;fontFamily=Verdana;align=center;fontSize=12;fontStyle=1" vertex="1" parent="1">
          <mxGeometry x="1430" y="660" width="150" height="40" as="geometry" />
        </mxCell>
        <mxCell id="kJzLt-CPVOsXME4S9jf1-44" value="View Upcoming Appointments" style="whiteSpace=wrap;html=1;rounded=1;shadow=0;comic=0;strokeWidth=2;fontFamily=Verdana;align=center;fontSize=12;fontStyle=1" vertex="1" parent="1">
          <mxGeometry x="1785" y="660" width="195" height="40" as="geometry" />
        </mxCell>
        <mxCell id="kJzLt-CPVOsXME4S9jf1-47" value="" style="endArrow=classic;html=1;rounded=0;exitX=0.5;exitY=1;exitDx=0;exitDy=0;entryX=0.5;entryY=0;entryDx=0;entryDy=0;" edge="1" parent="1" source="218ae93e1282097f-29" target="kJzLt-CPVOsXME4S9jf1-54">
          <mxGeometry width="50" height="50" relative="1" as="geometry">
            <mxPoint x="1440" y="500" as="sourcePoint" />
            <mxPoint x="1855" y="560" as="targetPoint" />
          </mxGeometry>
        </mxCell>
        <mxCell id="kJzLt-CPVOsXME4S9jf1-48" value="" style="endArrow=classic;html=1;rounded=0;exitX=0.5;exitY=1;exitDx=0;exitDy=0;" edge="1" parent="1" source="kJzLt-CPVOsXME4S9jf1-14">
          <mxGeometry width="50" height="50" relative="1" as="geometry">
            <mxPoint x="310" y="500" as="sourcePoint" />
            <mxPoint x="90" y="690" as="targetPoint" />
          </mxGeometry>
        </mxCell>
        <mxCell id="kJzLt-CPVOsXME4S9jf1-49" value="" style="endArrow=classic;html=1;rounded=0;exitX=0.421;exitY=1.047;exitDx=0;exitDy=0;exitPerimeter=0;" edge="1" parent="1" source="kJzLt-CPVOsXME4S9jf1-15">
          <mxGeometry width="50" height="50" relative="1" as="geometry">
            <mxPoint x="100" y="650" as="sourcePoint" />
            <mxPoint x="250" y="690" as="targetPoint" />
          </mxGeometry>
        </mxCell>
        <mxCell id="kJzLt-CPVOsXME4S9jf1-50" value="" style="endArrow=classic;html=1;rounded=0;fillColor=#d5e8d4;strokeColor=#82b366;entryX=0;entryY=0.25;entryDx=0;entryDy=0;strokeWidth=3;" edge="1" parent="1" target="6257edae8c83ed4a-9">
          <mxGeometry width="50" height="50" relative="1" as="geometry">
            <mxPoint x="250" y="690" as="sourcePoint" />
            <mxPoint x="290" y="230" as="targetPoint" />
            <Array as="points">
              <mxPoint x="20" y="690" />
              <mxPoint x="20" y="223" />
            </Array>
          </mxGeometry>
        </mxCell>
        <mxCell id="kJzLt-CPVOsXME4S9jf1-51" value="" style="endArrow=classic;html=1;rounded=0;exitX=0.5;exitY=1;exitDx=0;exitDy=0;" edge="1" parent="1" source="kJzLt-CPVOsXME4S9jf1-31">
          <mxGeometry width="50" height="50" relative="1" as="geometry">
            <mxPoint x="700" y="510" as="sourcePoint" />
            <mxPoint x="760" y="660" as="targetPoint" />
          </mxGeometry>
        </mxCell>
        <mxCell id="kJzLt-CPVOsXME4S9jf1-52" value="" style="endArrow=classic;html=1;rounded=0;exitX=0.406;exitY=1.033;exitDx=0;exitDy=0;exitPerimeter=0;" edge="1" parent="1" source="kJzLt-CPVOsXME4S9jf1-32">
          <mxGeometry width="50" height="50" relative="1" as="geometry">
            <mxPoint x="770" y="620" as="sourcePoint" />
            <mxPoint x="879" y="660" as="targetPoint" />
          </mxGeometry>
        </mxCell>
        <mxCell id="kJzLt-CPVOsXME4S9jf1-53" value="" style="endArrow=classic;html=1;rounded=0;fillColor=#d5e8d4;strokeColor=#82b366;strokeWidth=3;" edge="1" parent="1">
          <mxGeometry width="50" height="50" relative="1" as="geometry">
            <mxPoint x="880" y="660" as="sourcePoint" />
            <mxPoint x="880" y="320" as="targetPoint" />
            <Array as="points">
              <mxPoint x="700" y="660" />
              <mxPoint x="700" y="320" />
            </Array>
          </mxGeometry>
        </mxCell>
        <mxCell id="kJzLt-CPVOsXME4S9jf1-54" value="New Patient Record Created&amp;nbsp;" style="rounded=1;whiteSpace=wrap;html=1;strokeWidth=2;" vertex="1" parent="1">
          <mxGeometry x="1785" y="560" width="120" height="60" as="geometry" />
        </mxCell>
        <mxCell id="kJzLt-CPVOsXME4S9jf1-55" value="" style="endArrow=classic;html=1;rounded=0;exitX=0.5;exitY=1;exitDx=0;exitDy=0;" edge="1" parent="1" source="218ae93e1282097f-34">
          <mxGeometry width="50" height="50" relative="1" as="geometry">
            <mxPoint x="1560" y="630" as="sourcePoint" />
            <mxPoint x="1505" y="657" as="targetPoint" />
          </mxGeometry>
        </mxCell>
        <mxCell id="kJzLt-CPVOsXME4S9jf1-57" value="" style="endArrow=classic;html=1;rounded=0;entryX=0.5;entryY=0;entryDx=0;entryDy=0;exitX=0.75;exitY=1;exitDx=0;exitDy=0;" edge="1" parent="1" source="kJzLt-CPVOsXME4S9jf1-54" target="kJzLt-CPVOsXME4S9jf1-44">
          <mxGeometry width="50" height="50" relative="1" as="geometry">
            <mxPoint x="1560" y="630" as="sourcePoint" />
            <mxPoint x="1610" y="580" as="targetPoint" />
          </mxGeometry>
        </mxCell>
        <mxCell id="kJzLt-CPVOsXME4S9jf1-62" value="" style="endArrow=classic;html=1;rounded=0;exitX=1;exitY=0.5;exitDx=0;exitDy=0;entryX=0.062;entryY=0.001;entryDx=0;entryDy=0;entryPerimeter=0;" edge="1" parent="1" source="218ae93e1282097f-34" target="kJzLt-CPVOsXME4S9jf1-44">
          <mxGeometry width="50" height="50" relative="1" as="geometry">
            <mxPoint x="1560" y="630" as="sourcePoint" />
            <mxPoint x="1610" y="580" as="targetPoint" />
            <Array as="points">
              <mxPoint x="1560" y="600" />
              <mxPoint x="1760" y="600" />
            </Array>
          </mxGeometry>
        </mxCell>
        <mxCell id="kJzLt-CPVOsXME4S9jf1-63" value="" style="endArrow=classic;html=1;rounded=0;exitX=0.09;exitY=0.985;exitDx=0;exitDy=0;exitPerimeter=0;entryX=0.75;entryY=0;entryDx=0;entryDy=0;" edge="1" parent="1" source="kJzLt-CPVOsXME4S9jf1-54" target="kJzLt-CPVOsXME4S9jf1-43">
          <mxGeometry width="50" height="50" relative="1" as="geometry">
            <mxPoint x="1560" y="630" as="sourcePoint" />
            <mxPoint x="1610" y="580" as="targetPoint" />
            <Array as="points">
              <mxPoint x="1543" y="620" />
            </Array>
          </mxGeometry>
        </mxCell>
        <mxCell id="kJzLt-CPVOsXME4S9jf1-64" value="" style="endArrow=classic;html=1;rounded=0;exitX=0.5;exitY=1;exitDx=0;exitDy=0;fillColor=#d5e8d4;strokeColor=#82b366;strokeWidth=3;" edge="1" parent="1" source="kJzLt-CPVOsXME4S9jf1-43">
          <mxGeometry width="50" height="50" relative="1" as="geometry">
            <mxPoint x="1590" y="570" as="sourcePoint" />
            <mxPoint x="1590" y="220" as="targetPoint" />
            <Array as="points">
              <mxPoint x="1500" y="720" />
              <mxPoint x="1300" y="720" />
              <mxPoint x="1300" y="220" />
            </Array>
          </mxGeometry>
        </mxCell>
        <mxCell id="kJzLt-CPVOsXME4S9jf1-65" value="" style="endArrow=classic;html=1;rounded=0;entryX=1;entryY=0.5;entryDx=0;entryDy=0;exitX=0.46;exitY=1.085;exitDx=0;exitDy=0;exitPerimeter=0;fillColor=#d5e8d4;strokeColor=#82b366;strokeWidth=3;" edge="1" parent="1" source="kJzLt-CPVOsXME4S9jf1-44" target="218ae93e1282097f-2">
          <mxGeometry width="50" height="50" relative="1" as="geometry">
            <mxPoint x="2000" y="710" as="sourcePoint" />
            <mxPoint x="1820" y="240" as="targetPoint" />
            <Array as="points">
              <mxPoint x="1875" y="720" />
              <mxPoint x="2000" y="720" />
              <mxPoint x="2000" y="225" />
            </Array>
          </mxGeometry>
        </mxCell>
        <mxCell id="kJzLt-CPVOsXME4S9jf1-66" value="Log Out&amp;nbsp;" style="whiteSpace=wrap;html=1;rounded=1;shadow=0;comic=0;strokeWidth=2;fontFamily=Verdana;align=center;fontSize=12;fontStyle=1" vertex="1" parent="1">
          <mxGeometry x="1630" y="660" width="118" height="40" as="geometry" />
        </mxCell>
        <mxCell id="kJzLt-CPVOsXME4S9jf1-67" value="" style="endArrow=classic;html=1;rounded=0;exitX=0.5;exitY=1;exitDx=0;exitDy=0;fillColor=#f8cecc;strokeColor=#b85450;strokeWidth=4;" edge="1" parent="1" source="kJzLt-CPVOsXME4S9jf1-66">
          <mxGeometry width="50" height="50" relative="1" as="geometry">
            <mxPoint x="1700" y="530" as="sourcePoint" />
            <mxPoint x="1016" y="140" as="targetPoint" />
            <Array as="points">
              <mxPoint x="1689" y="750" />
              <mxPoint x="1240" y="750" />
              <mxPoint x="1240" y="40" />
              <mxPoint x="1016" y="40" />
            </Array>
          </mxGeometry>
        </mxCell>
      </root>
    </mxGraphModel>
  </diagram>
</mxfile>
